<?xml version="1.0" standalone="no"?>
<!DOCTYPE svg PUBLIC "-//W3C//DTD SVG 20010904//EN"
 "http://www.w3.org/TR/2001/REC-SVG-20010904/DTD/svg10.dtd">
<svg version="1.0" xmlns="http://www.w3.org/2000/svg"
 width="520.000000pt" height="520.000000pt" viewBox="0 0 520.000000 520.000000"
 preserveAspectRatio="xMidYMid meet">
<metadata>
Created by potrace 1.14, written by Peter Selinger 2001-2017
</metadata>
<g transform="translate(0.000000,520.000000) scale(0.100000,-0.100000)"
fill="#000000" stroke="none">
<path d="M3179 4795 c-2 -2 -35 -8 -74 -14 -38 -5 -80 -12 -92 -15 -13 -4 -33
-8 -44 -11 -12 -2 -58 -16 -103 -31 -212 -68 -405 -187 -571 -350 -77 -75
-197 -225 -226 -282 -8 -15 -17 -29 -20 -32 -7 -6 -90 -179 -94 -194 -1 -6 -5
-18 -8 -26 -13 -34 -47 -147 -52 -175 -12 -59 -14 -71 -20 -110 -3 -22 -7 -53
-10 -70 -2 -16 -5 -56 -6 -87 l-2 -58 -56 -1 c-83 -1 -175 -13 -246 -30 -22
-5 -47 -11 -56 -13 -227 -55 -481 -200 -657 -374 -70 -70 -192 -217 -192 -232
0 -5 -7 -15 -15 -24 -23 -23 -108 -191 -142 -281 -27 -72 -64 -210 -79 -297
-3 -18 -7 -100 -9 -183 -4 -157 7 -254 45 -395 11 -41 22 -82 24 -91 7 -29 59
-153 76 -184 9 -16 30 -55 46 -85 16 -30 31 -57 34 -60 3 -3 20 -27 39 -55
160 -232 412 -427 686 -530 69 -26 194 -61 245 -69 19 -3 62 -10 95 -16 68
-12 317 -11 355 1 14 4 44 10 67 13 120 15 309 80 443 153 221 120 410 295
545 507 46 72 116 211 131 261 2 6 14 43 28 83 14 40 27 85 30 100 2 15 10 54
17 87 13 70 16 98 18 181 l1 60 48 3 c77 3 202 18 234 27 10 3 28 7 40 9 130
24 355 121 483 208 117 81 272 222 326 299 13 18 32 42 42 53 47 51 143 228
195 363 22 56 65 223 79 307 10 65 10 337 0 395 -5 25 -11 61 -14 80 -3 19
-19 80 -35 135 -85 286 -251 536 -478 721 -19 16 -41 34 -48 41 -54 52 -332
196 -422 219 -8 2 -56 15 -107 28 -50 13 -111 27 -135 31 -46 7 -353 16 -359
10z m251 -600 c60 -5 173 -35 211 -56 13 -7 26 -12 29 -12 33 2 189 -104 265
-181 166 -167 254 -373 256 -596 1 -111 -7 -165 -38 -269 -101 -342 -428 -602
-772 -614 l-46 -2 0 438 c0 284 -3 437 -10 438 -5 0 -203 1 -440 2 l-430 2 1
35 c6 187 89 388 223 535 144 158 341 258 556 283 71 8 95 7 195 -3z m-1574
-1883 c0 -237 4 -435 7 -438 3 -4 200 -7 436 -7 454 0 445 1 437 -44 -2 -10
-7 -44 -10 -76 -15 -126 -80 -281 -164 -392 -208 -273 -550 -399 -881 -326
-52 12 -99 25 -105 31 -5 5 -17 10 -27 10 -23 0 -153 73 -216 122 -112 86
-214 222 -270 358 -49 121 -64 199 -64 330 1 179 47 328 154 494 12 18 60 75
107 126 43 46 200 155 240 165 3 1 21 9 40 17 47 21 136 46 184 52 21 3 39 6
41 8 2 2 23 3 47 3 l43 0 1 -433z m880 292 l0 -141 -140 1 -141 1 -1 141 -1
142 141 -2 141 -1 1 -141z"/>
</g>
</svg>
